<!-- Base64 encoded favicon for WordPress Manager -->
<svg xmlns="http://www.w3.org/2000/svg" viewBox="0 0 512 512">
  <defs>
    <linearGradient id="grad" x1="0%" y1="0%" x2="100%" y2="100%">
      <stop offset="0%" style="stop-color:#667eea;stop-opacity:1" />
      <stop offset="100%" style="stop-color:#764ba2;stop-opacity:1" />
    </linearGradient>
  </defs>
  <circle cx="256" cy="256" r="256" fill="url(#grad)" />
  <path fill="#ffffff" d="M128 352l80-192c5.6-12.8 13.6-12.8 19.2 0l80 192c3.2 6.4 1.6 12.8-4.8 17.6-6.4 3.2-12.8 1.6-17.6-4.8L256 320h-64l-28.8 44.8c-3.2 6.4-9.6 8-16 4.8-6.4-3.2-9.6-9.6-6.4-17.6zM242.4 288h36L256 235.2 242.4 288zM400 160c-8.8 0-16 7.2-16 16v160c0 8.8 7.2 16 16 16h32c8.8 0 16-7.2 16-16V176c0-8.8-7.2-16-16-16h-32z"/>
</svg>
